/* XPM */
static char *_f97e574440c4fd3efa1610ee335d152kWGQ02ehksNGYqJI[] = {
/* columns rows colors chars-per-pixel */
"32 32 210 2 ",
"   c #132500",
".  c #093B00",
"X  c #3A2B00",
"o  c #333900",
"O  c #403700",
"+  c #583800",
"@  c #693400",
"#  c #663306",
"$  c #743000",
"%  c #7F3100",
"&  c #7B380B",
"*  c #0C5415",
"=  c #114E05",
"-  c #2B470D",
";  c #245F1F",
":  c #3F5F16",
">  c #026606",
",  c #196F0E",
"<  c #316B17",
"1  c #186F28",
"2  c #107927",
"3  c #19742E",
"4  c #2A7E20",
"5  c #347828",
"6  c #564901",
"7  c #4A5703",
"8  c #55550D",
"9  c #575B1E",
"0  c #674200",
"q  c #655E0E",
"w  c #715806",
"e  c #6F4819",
"r  c #486F04",
"t  c #4A6018",
"y  c #5B6F18",
"u  c #497E14",
"i  c #567F1F",
"p  c #59660C",
"a  c #7D621D",
"s  c #647910",
"d  c #656819",
"f  c #685721",
"g  c #4D6F23",
"h  c #4E7A23",
"j  c #5A7B22",
"k  c #607526",
"l  c #627631",
"z  c #777C2A",
"x  c #A33C13",
"c  c #8D5011",
"v  c #AE521F",
"b  c #845A20",
"n  c #856822",
"m  c #9C7D2A",
"M  c #A76439",
"N  c #C24725",
"B  c #D84E31",
"V  c #DD5E3E",
"C  c #F15735",
"Z  c #C56F34",
"A  c #DB6837",
"S  c #DF763D",
"D  c #E8673C",
"F  c #F5663E",
"G  c #C86A44",
"H  c #E57B47",
"J  c #16960E",
"K  c #1A8B19",
"L  c #0E931A",
"P  c #0F9A19",
"I  c #1C9317",
"U  c #14951B",
"Y  c #1B941B",
"T  c #149C1B",
"R  c #1C991D",
"E  c #06860B",
"W  c #228D1D",
"Q  c #268D1B",
"!  c #22931E",
"~  c #29931E",
"^  c #279B1F",
"/  c #329C1C",
"(  c #32951E",
")  c #16A31F",
"_  c #1BA31F",
"`  c #29A21D",
"'  c #11832C",
"]  c #089721",
"[  c #089921",
"{  c #149422",
"}  c #1E9320",
"|  c #179821",
" . c #1D9C23",
".. c #149A29",
"X. c #1A8132",
"o. c #179237",
"O. c #2C8C22",
"+. c #238D25",
"@. c #249C24",
"#. c #2C9D24",
"$. c #27932C",
"%. c #249C2B",
"&. c #2C9D2B",
"*. c #289223",
"=. c #3D9225",
"-. c #359C25",
";. c #3A9927",
":. c #39902F",
">. c #339E2C",
",. c #3A9C2B",
"<. c #31972A",
"1. c #278F3A",
"2. c #358B3D",
"3. c #2E9D32",
"4. c #229838",
"5. c #27953C",
"6. c #349F32",
"7. c #3B9C32",
"8. c #3B882A",
"9. c #1CA325",
"0. c #15AA25",
"q. c #1BAA25",
"w. c #16A62D",
"e. c #1EA42C",
"r. c #1EAB2C",
"t. c #16A620",
"y. c #1BA634",
"u. c #1FAD30",
"i. c #1CA43B",
"p. c #17A23B",
"a. c #24A325",
"s. c #2CA325",
"d. c #2CA925",
"f. c #24A52C",
"g. c #2CA42C",
"h. c #24AA2B",
"j. c #2BAA2D",
"k. c #20A925",
"l. c #33A425",
"z. c #38A526",
"x. c #33A924",
"c. c #33A32C",
"v. c #3AA42D",
"b. c #33A92D",
"n. c #39A828",
"m. c #2CB12D",
"M. c #32B22A",
"N. c #25A332",
"B. c #2BA531",
"V. c #25AB32",
"C. c #2EAA32",
"Z. c #2AAA36",
"A. c #2EA935",
"S. c #2CAC33",
"D. c #22A53C",
"F. c #2BAA3A",
"G. c #33A332",
"H. c #3AA634",
"J. c #3DA434",
"K. c #36A930",
"L. c #31AC35",
"P. c #34AA32",
"I. c #3BA935",
"U. c #33AB39",
"Y. c #39A639",
"T. c #2CB332",
"R. c #27B839",
"E. c #28B539",
"W. c #30B233",
"Q. c #34B43B",
"!. c #39B136",
"~. c #45841C",
"^. c #4B9115",
"/. c #498B29",
"(. c #578628",
"). c #5F852E",
"_. c #48972A",
"`. c #449E2E",
"'. c #479629",
"]. c #5C9927",
"[. c #4E8E33",
"{. c #5B8C35",
"}. c #4E9435",
"|. c #449A32",
" X c #489E39",
".X c #479734",
"XX c #589838",
"oX c #579832",
"OX c #63912E",
"+X c #688626",
"@X c #40A120",
"#X c #41A42F",
"$X c #41A823",
"%X c #44A132",
"&X c #42A23C",
"*X c #4BAF31",
"=X c #1F9F40",
"-X c #27A841",
";X c #29AC42",
":X c #33AA48",
">X c #2DB547",
",X c #32B949",
"<X c #6F8F44",
"1X c #40A44C",
"2X c #59A646",
"3X c #B19237",
"4X c #B09D41",
"5X c #D38C4E",
"6X c #DAA255",
"7X c #F5A158",
/* pixels */
",.-.#.@.a.9.9.9.V.e.f.F.;Xi.p.i.F.g.;.'.=.O.@.u.w.e.%.H.,.>.G.U ",
"v.c.c.g.h.h.h.h.j.f.f.Z.F.D.D.i.f.a.;.`..X,.B.E.r.V.&.J.7.>.U.U ",
"c.c.g.g.h.h.j.j.j.g.g.s.g.A.A.f.V.f.>.%X%X,.f.e.r.V.&.J.J.6.L.U ",
"B.B.B.B.g.g.s.s.s.n.n.#.#.b.P.g.V.h.g.,.J.v.f.9.f.V.&.H.7.>.C.U ",
"F.F.Z.Z.C.g.s.s.l.n.z./ / z.n.s.9.9.@.&.c.H.L.V.f.g.&.H.c.&.C.U ",
"Z.Z.Z.B.g.s.#./ l.z.z.-./ -.z.s.f.h.g.s.c.U.L.B.j.C.g.I.G.g.S.U ",
"e.f.N.B.g.s.#.#.c.c.c.v.>.#.#.&.f.Z.A.B.g.g.j.f.g.G.c.I.G.s.Z.L ",
"f.V.B.P.P.v.c.c.c.s.g.U.G.$.$.3.K %.B.B.f.B.j.g.s.c.#.v.g.%.N.L ",
"a.a.g.v.v.c.&.%.B.Z.N.:X4.5.1.1X> +.G.N.Q.9.Q.R v.s.c.P.P.Q.S.| ",
"a.a.s.c.c.c.g.g.Z.,XD.=X' X.3 2.= 4 K %.B.h.j.g.b.s.c.g.g.C.A.| ",
"a.s.s.c.c.c.G.C...>Xo.o.2 1 * ; . < , 3.N.V. .P.n.#.s.s.a.j.B.} ",
"s.s.s.c.c.c.P.S.e.,X-X:X2.5 = -   : 5 7.L.T.R g.x.s.s.g.k.j.B.} ",
"g.g.c.c.c.c.g.j.h.F.%.&X[.g o O X 9 {.:.U.h.a.s.s.` j.j.h.j.g.W ",
"B.g.g.c.c.c.g.j.j.a.Q _.i z a b e f <X8.G.h.j.d.s.s.m.T.j.C.c.W ",
"N.N.3.g.c.b.g.d.M.x.@X].s 4X6X5XM e l }.&.h.j.j.s.s.m.T.h.j.c.Q ",
"%.%.f.g.g.b.b.x.` x.$X^.7 3X7XS G # t 2X&.S.@.x.d.d.m.m.a.g.c.~ ",
"G.g.f.h.B.b.v.-.s.d.J *Xr m A F V & h <.j.f.#X( j.q.q.r.s.v.P.@.",
">.s.e.r.h.g.,.;.c.W.T b.u w D C B $ h @.h.g.,.=.j.q.0.h.c.J.P.@.",
">.g.h.h.h.s.;.;.s.m.) x.].6 H D N @ {.g.V.W.,.`.d.t.0.q.-.v.b.R ",
">.g.V.V.h.&.;.;.s.h.r.g.oX6 Z A x + XXf.V.W.;.#Xd.) 0.q.#.c.s.U ",
">.c.S.V.h.s.-.>.P.a.r.j.'.p c v % + }. .r.h.~ ,.j.q.q.h.#.c.s.K ",
">.c.j.h.j.g.c.c.b.9.r.j.'.+X0 c @ 8 .X .u.9.#.-.m.h.h.j.c.v.c.Y ",
">.s.f.h.j.g.c.&.@.h.q.j.`.OXq n 6 k |.f.R.) P.c.j.k.h.j.c.H.c.Y ",
">.#.a.f.j.j.s.&. .Q.9.a.%X~.y d 7 {.,.f.R.P !.&.a._ 9.h.c.v.c.Y ",
"#.c.C.h.h.C.g.&.a.f.S.L.J._.(.j ).[.>.f.r.h.g.g.j.k.h.j.s.v.c.! ",
"#.s.g.f.f.j.g.s.a.f.g.g.c.,././.}..XG.V.V.h.j.j.a.a.g.j.s.c.s.Y ",
"#.c.g.g.f.B.C.B.g.g.B.g.c.>.7.|. X&XU.F.S.j.j.j.s.a.j.P.v.P.g.Y ",
"c.c.g.g.f.j.C.C.G.G.G.G.G.G.G.H.G.G.B.B.f.f.g.g.s.s.b.P.b.P.g.R ",
"v.b.g.g.f.f.f.g.G.G.G.G.G.G.Z.Z.B.B.B.g.s.a.a.a.s.s.b.b.s.j.g.R ",
"P.c.g.j.j.f.f.g.G.G.J.J.Y.A.Z.V.F.F.U.G.P.b.j.j.b.s.b.b.s.j.C. .",
"c.#.s.j.j.a.a.f.g.>.7.7.6.N.y.w.V.Z.B.G.G.c.j.j.s.#.c.b.s.g.g.U ",
"! I Y @. .U U R *.*.O.O.+.{ ] [ [ { } ! ! Y Y R I I ~ #.! R R E "
};
