/* XPM */
static char *_2655d75dc694979f65a21857f8dd044rTPM42KbeoOJ2JM2[] = {
/* columns rows colors chars-per-pixel */
"32 32 59 1 ",
"  c #0A840B",
". c #138D14",
"X c #158F16",
"o c #169017",
"O c #179118",
"+ c #1A9119",
"@ c #189219",
"# c #19931A",
"$ c #1B921A",
"% c #1C931B",
"& c #1A941B",
"* c #1B951C",
"= c #1D941C",
"- c #1E951D",
"; c #1C961D",
": c #1D971E",
"> c #1E981F",
", c #1F9920",
"< c #209A21",
"1 c #219B22",
"2 c #249B23",
"3 c #229C23",
"4 c #239D24",
"5 c #259C24",
"6 c #269D25",
"7 c #249E25",
"8 c #259F26",
"9 c #279E26",
"0 c #289F27",
"q c #26A027",
"w c #27A128",
"e c #29A028",
"r c #2AA129",
"t c #28A229",
"y c #29A32A",
"u c #2BA22A",
"i c #2CA32B",
"p c #2AA42B",
"a c #2BA52C",
"s c #2DA42C",
"d c #2EA52D",
"f c #2CA62D",
"g c #2DA72E",
"h c #2FA62E",
"j c #2EA82F",
"k c #30A72F",
"l c #2FA930",
"z c #31A830",
"x c #32A931",
"c c #30AA31",
"v c #31AB32",
"b c #33AA32",
"n c #34AB33",
"m c #32AC33",
"M c #33AD34",
"N c #35AC34",
"B c #34AE35",
"V c #35AF36",
"C c #36B037",
/* pixels */
"yyw88444pyyyyyypqyyq43qp8y4jpwjo",
"gggaaaaagappppagaaayyypgygwcgpm&",
"pppaagggggaaaagggappagggpgymjam&",
"yppaapppgaappaaggyqyggayygwcgyc+",
"jllljgpyppyyyyppaywyglgyygwcgylO",
"gggggyw8pyyyyyypapaglclgglpMjpc+",
"wypapyq8appyyppawygjgggjajymgylO",
"yaglcjgaggappagg1qagyypgya8jy8a.",
"8ygjjpq4cgagccaw8wypaapylygccNc-",
"8wpgggpyggayyypgwypaaapylypgacl-",
"qwyaggjjpggy88gmpagggapylwyyqgg-",
"yyypaglcgggayalMgggggapygwpawga*",
"gapppggjgapglclgjgggappppwjmgjp+",
"appppaggayqplla8ggapppaayymCllp+",
"qwyyaggggapypppyapyyyyagapmNggp&",
"14qyagjjlccgwwgcyywwyyaggaccyap-",
"iyysccgyk00ikgisgawqwyyylwypycc,",
"yyygggiyky0sggygcgaagggajqyapcc1",
"yyggiy0yki0sgiyigaagjlgaa8wyyll>",
"ygkky00ykiiggyyg888yggywa48w8ay+",
"ygccsyyigyyggyyg888yppy8lwypwayX",
"ygkkksiiyyygsyyzpyyyggpyMgjlgla+",
"yiigggsy00iksygclgppgggalyglgcg*",
"y00ygki088ygsygNcgpypaapy4wapcg&",
"0gzsszg8ygcccggggaappaaggyagyjg>",
"8ysyyggy0ygggyyyggaaaaggy8pgygp+",
"yisigccg0ikkgiiilljggjllyqjMlcg+",
"gggsgkczskcckggkjggggggjaylmjcg*",
"kgiiyyyigzcckgkcaapyypaagwagygg-",
"cggzgyyizbbbcccbcljjjjlclyggyll1",
"gyygg08yiigiyyigggappaggy8pgygp&",
"-+=22=+-%=-%++%----**---&O,4,1- "
};
