/* XPM */
static char *_522edf15fac43cf8d2d25314e97e92eX9U4cMQfpjgInKUZ[] = {
/* columns rows colors chars-per-pixel */
"32 32 232 2 ",
"   c #191100",
".  c #2E1100",
"X  c #291C09",
"o  c #321300",
"O  c #371C00",
"+  c #261C11",
"@  c #2B220D",
"#  c #33230C",
"$  c #382609",
"%  c #2E2110",
"&  c #3A2810",
"*  c #4B1600",
"=  c #471000",
"-  c #571F00",
";  c #492908",
":  c #522809",
">  c #472916",
",  c #463111",
"<  c #583718",
"1  c #4C340E",
"2  c #693611",
"3  c #513424",
"4  c #7A3E23",
"5  c #167D07",
"6  c #684419",
"7  c #71421D",
"8  c #736C1C",
"9  c #694723",
"0  c #794927",
"q  c #7D5227",
"w  c #7B5832",
"e  c #797626",
"r  c #79762C",
"t  c #81471F",
"y  c #814925",
"u  c #865529",
"i  c #955B2E",
"p  c #9A5F33",
"a  c #9A6B2B",
"s  c #837B2C",
"d  c #976634",
"f  c #956B3D",
"g  c #9C6A3B",
"h  c #9D6337",
"j  c #8C7D30",
"k  c #997735",
"l  c #8B6A2A",
"z  c #A36C35",
"x  c #A66939",
"c  c #B26E3F",
"v  c #A37538",
"b  c #A87839",
"n  c #B7773C",
"m  c #A26C2E",
"M  c #9B7244",
"N  c #9F7A45",
"B  c #9D6D45",
"V  c #AC6F42",
"C  c #B87945",
"Z  c #AC7D51",
"A  c #C17D46",
"S  c #15960D",
"D  c #188F1B",
"F  c #0E991E",
"G  c #07971A",
"H  c #16961C",
"J  c #1B951D",
"K  c #179618",
"L  c #138F09",
"P  c #248E1A",
"I  c #308E1C",
"U  c #22921B",
"Y  c #229A1D",
"T  c #289C19",
"R  c #36991A",
"E  c #1BAA1A",
"W  c #1EA313",
"Q  c #26A41E",
"!  c #38A21B",
"~  c #1D9429",
"^  c #139B2B",
"/  c #189924",
"(  c #139125",
")  c #258F21",
"_  c #239523",
"`  c #249C23",
"'  c #2D9E24",
"]  c #239C28",
"[  c #2B9C29",
"{  c #3B9323",
"}  c #349C24",
"|  c #3B9C25",
" . c #339E2C",
".. c #3B9D2B",
"X. c #3D962A",
"o. c #399E33",
"O. c #359F34",
"+. c #279F33",
"@. c #0BA020",
"#. c #19A224",
"$. c #1BA42B",
"%. c #1EAC2D",
"&. c #12A625",
"*. c #19B02B",
"=. c #1DAC39",
"-. c #19A835",
";. c #1CB03E",
":. c #24A224",
">. c #2AA524",
",. c #2EAC25",
"<. c #24A42C",
"1. c #2CA42C",
"2. c #24AA2C",
"3. c #2CAA2D",
"4. c #25AC24",
"5. c #32A326",
"6. c #32A32C",
"7. c #3AA22D",
"8. c #31A92C",
"9. c #3CA72B",
"0. c #24B129",
"q. c #23A532",
"w. c #2BA532",
"e. c #24AA33",
"r. c #2CAA32",
"t. c #23AB39",
"y. c #2BA93A",
"u. c #34A331",
"i. c #3BA532",
"p. c #34AB33",
"a. c #33A53B",
"s. c #32AB3B",
"d. c #3AA637",
"f. c #33B335",
"g. c #528D1F",
"h. c #439619",
"j. c #60861F",
"k. c #48A11F",
"l. c #4A8F22",
"z. c #5C8F2C",
"x. c #558A25",
"c. c #4D9425",
"v. c #429D25",
"b. c #4C942E",
"n. c #429B2B",
"m. c #469728",
"M. c #53922C",
"N. c #5C922D",
"B. c #589524",
"V. c #4D9531",
"C. c #479A30",
"Z. c #5B9532",
"A. c #509932",
"S. c #549435",
"D. c #658726",
"F. c #75862E",
"G. c #63952C",
"H. c #7B8A33",
"J. c #7A8737",
"K. c #629333",
"L. c #6A9739",
"P. c #6E9B3C",
"I. c #769B32",
"U. c #43A12C",
"Y. c #4CA526",
"T. c #5AAA2B",
"R. c #4BA532",
"E. c #5EA231",
"W. c #54B329",
"Q. c #64B534",
"!. c #72BC3F",
"~. c #71A62F",
"^. c #73C137",
"/. c #35A840",
"(. c #6FBB43",
"). c #7FC245",
"_. c #9A8D1A",
"`. c #A48A19",
"'. c #848436",
"]. c #858A38",
"[. c #978537",
"{. c #8A9738",
"}. c #9B9A36",
"|. c #998725",
" X c #AE972F",
".X c #AA883E",
"XX c #B4873B",
"oX c #A79539",
"OX c #B39935",
"+X c #AC8E27",
"@X c #81A42E",
"#X c #84A83D",
"$X c #97A538",
"%X c #90BA3E",
"&X c #A8A93A",
"*X c #B2A734",
"=X c #A9B436",
"-X c #AEB136",
";X c #C39738",
":X c #858543",
">X c #929D41",
",X c #AB8345",
"<X c #AA8946",
"1X c #BF814A",
"2X c #B68646",
"3X c #AC9648",
"4X c #B69746",
"5X c #BE9354",
"6X c #BE8657",
"7X c #9AAD47",
"8X c #A7BB44",
"9X c #B5A957",
"0X c #C3824B",
"qX c #CA894D",
"wX c #C69648",
"eX c #D58F51",
"rX c #CA9A53",
"tX c #D09252",
"yX c #D1A05B",
"uX c #CD9866",
"iX c #86CA4B",
"pX c #95C84E",
"aX c #8ED048",
"sX c #93D74F",
"dX c #BBCA4A",
"fX c #BDC347",
"gX c #A6D54E",
"hX c #A6C853",
"jX c #A8D553",
"kX c #B6D856",
"lX c #A6C546",
"zX c #B3EC69",
/* pixels */
"<.<.<.<.] ] ] ] w.3.1.` :.>.>.T | | | R T W W E E E #.2.w.+.a.~ ",
"3.3.3.1.w.w.w.w.1.1.1.:.1.3.3.1.6.7.7.5.>.Q 4.4.Q 4.:.r.r.w./.~ ",
"1.1.1.1.1.3.w.w.w.r.q.<.<.r.r.<.<.1.w.3.1.1.>.3.>.3.1.p.r.w.s.~ ",
"5.6.6.6.3.1.1.1.<.e.q.q.w.y.y.q.q.q.q.e.w.1.1.1.1.8.1.8.3.1.p.K ",
"7.9.7.7.8.3.1.<.<.<.q.q.w.s.s.y.t.=.t.t.y.a.a.u. .u. .p.1.>.3.S ",
"7.7.6.6.1.1.:.:.3.3.:.] ] [ [ _ q.%.q.q.w.a.d.d.o.i...i.8.>.,.S ",
"[ [ 6.1.1.>.:.Q 8.8.5.T } U.U.U.9.6.>.'  .u.O.O.u.u. .p.3.>.,.S ",
"1.w.3.3.3.3.>.>.! ! R Y.T.(.iXiXQ.T.Y.v.| .... . .u.[ 8.>.Q >.L ",
"q.t.<.2.f.>.U ! W.W.^.aXgXjXjXkXgXjXjXaXQ.h.R 5.6.3.3.r.3.3.>.Y ",
"^ -.$.e.f.5.! Q.sXsXgXkXkXkXdXdX-X-X=XlXpX).T.| ' ' :.1.p.p.3.` ",
"-.=.t.r.8.R Y.iXzXkXkXdXfX-X*X*X+X`._.}.8X%X~.h.Y.9.' ` 3.d.w.~ ",
";.=.t.p.} R E.pXjX8X&X&X*XOX X X;X;XOXOX&X$X@X~.).(.R.} ' w.w.~ ",
"=.$.1.i.v.c.~.8X$X}.oX4X4X4X.XXX2XwXrXwXOXoX}.$XhXpX(.R...u.w.^ ",
"e.<.6.U.c.G.#X}.oX3X3X4X<Xk l u u d b 2XwXwX X|.}.$X#XE.n.u.q.^ ",
"2.>.9.n.g.I.>X[.3X<X,Xf q 2 : : < 9 u g 0XeXwXXX+X}.{.B.m.u.<.F ",
"K Y | c.j.>X9X<X5X,Xf 0 < ; > 3 > > < 7 p A eXeXwX4X}.D.l.i.r.^ ",
"2.' { z.].3X5XtXuXZ w < & % + + % # & < q g C qXqXyX3X].x.{ u./ ",
"0.1.n.G.'..XC C 6XB 9 , % @ + +   X $ , < q x 1X1XrX<X].z.n.f.#.",
"*.2...N.F.j k z 2Xf 9 , # X X X X # & 1 6 q z C z ,Xj F.M...r.@.",
"&.<.U.Z.H.j v b C d 7 ; O o . o o . o ; 7 i z z m b s D.M...<.G ",
"$.8.R.P.{.<X2XA C z y 2 : * = = * * - 2 i c C n n XXj H.K.C.u.D ",
"1.6.A.L.].[.b n C c h u y 0 4 4 y i x V C C A 0Xn 2X[.H.L.V.o.D ",
"1. .b.z.H.j l a v v k k M M M M f N ,XZ v a a a k [.s F.K.m...) ",
"r.u.X.b.K.F.e e 8 8 r r '.:X:X:XJ.J.'.'.j s e 8 e F.D.N.A.X.i.[ ",
"$.e.r...n.A.M.x.z.z.Z.Z.S.S.S.V.V.b.M.M.N.N.G.N.N.c.m.n.6.p.r./ ",
"&.%.2.:.[ 7...| | | ..7.7... .[ 3.1.6.7...v.v.v.| } 6.3.<.e.2.F ",
"$.%.2.<.1.r.p.8.1.1.1.3.3.2.2.2.2.%.2.3.1.6.6.6.>.:.3.r.e.r.<.H ",
"w.1.1.1.1.3.r.r.3.3.3.3.3.2.2.2.*.*.2.2.1.1.1.1.1.<.2.r.r.r.u.U ",
"i.6.6.6.1.1.1.1.7.7.i.u.7.8.8.3.2.2.1.1. . . .[ w.:.1.r.1.i...I ",
"U.7.6.u.u.1.1.1.d.i.i.i.i.i.i.p.3.r.p.i.i.i.i.u.r.<.r.r.6.9.U.{ ",
"6.' 1.3.2.$.$.<.1.1.6. . .6.6.1.<.<.3.8.u.u.u.w.<.$.%.2.<.6. .P ",
"U J J #.#.F F / / J U U P U U J H H J U _ _ _ / F G @.&.H J U 5 "
};
