/* XPM */
static char *a58c8bef22bb41c4bdf15963254e48adWWF2fIbqCkcTcUtP[] = {
/* columns rows colors chars-per-pixel */
"32 32 139 2 ",
"   c #157C15",
".  c #265F27",
"X  c #33453D",
"o  c #226825",
"O  c #276329",
"+  c #29752A",
"@  c #2B7E2C",
"#  c #307135",
"$  c #337439",
"%  c #367B3B",
"&  c #477C3F",
"*  c #396E42",
"=  c #3E6F48",
"-  c #3C7444",
";  c #41504D",
":  c #4C4C5A",
">  c #4E595D",
",  c #536E47",
"<  c #55764A",
"1  c #466F52",
"2  c #4B6D5B",
"3  c #497255",
"4  c #4B7458",
"5  c #697456",
"6  c #555767",
"7  c #5E5F65",
"8  c #527162",
"9  c #5E6772",
"0  c #65676A",
"q  c #7C6F63",
"w  c #6D6372",
"e  c #626679",
"r  c #646C7A",
"t  c #617775",
"y  c #617E73",
"u  c #637D78",
"i  c #846971",
"p  c #967876",
"a  c #94747E",
"s  c #1C8D1C",
"d  c #1D931D",
"f  c #1F9520",
"g  c #248424",
"h  c #238D23",
"j  c #2A8E2A",
"k  c #229422",
"l  c #259C25",
"z  c #289F27",
"x  c #2B932B",
"c  c #279F28",
"v  c #2A9D2A",
"b  c #30912E",
"n  c #2F8031",
"m  c #308633",
"M  c #2F9D30",
"N  c #309030",
"B  c #26A226",
"V  c #27A827",
"C  c #27A228",
"Z  c #2BA42B",
"A  c #2DA92D",
"S  c #30AA2F",
"D  c #2FA130",
"F  c #2FAB30",
"G  c #31A631",
"H  c #35AE35",
"J  c #32AB32",
"K  c #38AC37",
"L  c #38AE38",
"P  c #35B035",
"I  c #35B035",
"U  c #3BB23A",
"Y  c #A1857F",
"T  c #746E80",
"R  c #6B7085",
"E  c #6E738A",
"W  c #70758B",
"Q  c #73788E",
"!  c #74798E",
"~  c #73798E",
"^  c #767D93",
"/  c #787D93",
"(  c #787C96",
")  c #867583",
"_  c #8B7886",
"`  c #847B8B",
"'  c #817F94",
"]  c #897E90",
"[  c #698082",
"{  c #7B8797",
"}  c #7D829C",
"|  c #8C8B8E",
" . c #81859B",
".. c #83899D",
"X. c #A58088",
"o. c #AF8188",
"O. c #B18389",
"+. c #B2888A",
"@. c #B68891",
"#. c #BD8B92",
"$. c #8487A1",
"%. c #848BA3",
"&. c #848AA4",
"*. c #878CA8",
"=. c #878CA8",
"-. c #8D93AE",
";. c #8E93AE",
":. c #8D93B0",
">. c #9095B5",
",. c #9299B6",
"<. c #959BBB",
"1. c #999FBF",
"2. c #989DBC",
"3. c #989EBE",
"4. c #9BA0BF",
"5. c #A2A1A4",
"6. c #B5B4B7",
"7. c #B6B7BB",
"8. c #B9B9BC",
"9. c #C28F98",
"0. c #C9929A",
"q. c #D49BA4",
"w. c #D199A0",
"e. c #F7B1BD",
"r. c #F8B2BB",
"t. c #FAB2BD",
"y. c #FAB3BD",
"u. c #FBB2BE",
"i. c #FCB2BD",
"p. c #9CA3C3",
"a. c #9FA6C8",
"s. c #A0A7C9",
"d. c #A3ABCD",
"f. c #A7AED2",
"g. c #A9AFD4",
"h. c #ACB4D7",
"j. c #AEB6DB",
"k. c #CBCACE",
"l. c #FBFAFE",
/* pixels */
"v Z Z l l Z l l C Z C C G v C Z Z Z Z l v l C C l C Z C C Z J s ",
"Z A Z A Z C J C J G l Z G l S A H l A Z Z Z C J A C Z J Z Z J k ",
"Z C C Z Z C J C J C J C Z A J l Z Z J J Z Z Z G l Z Z Z S Z S d ",
"v Z J Z G l H A C J Z v v H A J S Z l C A A C z Z J Z Z J G C k ",
"Z J Z A J J Z l C Z Z C C Z A l v v C C A A A C Z A C G Z A Z s ",
"C Z G Z Z Z C l Z A Z Z C C Z Z Z Z J Z V H H F A J Z L J Z Z k ",
"Z Z Z Z C V Z Z Z x O j Z v Z A Z A J Z g O x Z Z C Z C A C Z s ",
"v C Z J J C Z Z Z g i / $ Z G C C l Z - ! i N Z l Z C Z G Z Z s ",
"C l J A A A v l Z v 0.a 2.% v Z C l - 2.X.o.v l Z C H Z J J Z d ",
"l V v l J C A Z Z A X.u.` %.j A A g ,.) r.q Z A J C Z C A C J l ",
"C C C J Z G Z Z Z A , u.9.2.- A C 3 ;.q.u.& l Z Z Z C l A S A d ",
"C A J Z G Z C K A Z x w.u.] r I Z { _ i.#.x Z A C A A V C A Z k ",
"C Z Z Z Z C G H Z Z l 5 u.a Q C H =.@.u.< J l V S l J F Z Z Z k ",
"G C C Z C H Z Z A Z l x +.O.( u u $.0.p x C A A Z C J J J Z C s ",
"Z z Z Z l J C A J Z Z A @ T j.j.j.j.w b A J l J Z Z A A Z C A d ",
"k z S Z Z J Z H G A A Z # g.j.j.j.j.d.m C Z C Z Z I Z A A Z v k ",
"C C Z J A Z J C A Z C Z y =.>.j.j.$.<.4 J G Z l J A C Z J l J d ",
"A Z G C C A J Z l C Z j 9 E W j.j.} %.> x A J C C Z k Z V A H l ",
"G Z Z Z Z Z C C A A Z t } } d.' $.f.( &.2 A Z C Z C Z d A G H k ",
"l Z A Z Z Z C Z J l C [ 2.$.d.: 6 g. .a.8 A Z Z l V C V l Z A s ",
"Z A J A C V C Z J C A n Q j.j.%.;.j.j.e @ l Z Z A A C Z Z F C s ",
"Z Z A Z C J c C l Z x ^ <.E ^ s.<.R ^ p.} x C l J A Z C Z Z Z k ",
"C Z A Z Z J Z J A l J 1 <.j.j.h.h.j.j.:.= C J A A Z A Z J A Z s ",
"Z C C C H Z C Z l Z Z Z o :. .8.7...=.+ A A Z V Z l A Z C Z J k ",
"C Z Z Z A A A Z C C H U 3 p.k.l.l.6.s.- A C B J Z Z A F C Z A d ",
"v v A J C Z A B C C J A * 4.5.l.l.| p.% Z A F J l Z H l Z Z A s ",
"C Z C C Z Z Z A A C Z Z D ; e 0 7 r X v Z H J C l C J H Z J A s ",
"A A Z C A A J A Z A Z C J v x M x x Z A Z l Z Z Z A C A G Z A k ",
"Z A A C A A C Z Z J J I Z J Z A H l J Z Z C Z Z Z A C A C A Z d ",
"A Z Z A A l Z C Z A G Z H G G Z Z Z A Z Z C J A Z C A C G G A l ",
"G Z G J Z Z l A A A J A C v J Z J A A G G F Z H C Z A A H J C k ",
"s s s k l l h d d s s k d h s d d d k d h l d d k s k d f k d   "
};
