/* XPM */
static char *da7e342132534438f66736083eafab208ucGjfuTSoBsFo1t[] = {
/* columns rows colors chars-per-pixel */
"32 32 184 2 ",
"   c #232C1F",
".  c #2C2E1F",
"X  c #0A2520",
"o  c #0A2B23",
"O  c #122E23",
"+  c #1D2F22",
"@  c #0B3326",
"#  c #0D3A26",
"$  c #0C3528",
"%  c #093D2A",
"&  c #143324",
"*  c #1B3123",
"=  c #133C24",
"-  c #193A27",
";  c #123D2A",
":  c #1F3D28",
">  c #263523",
",  c #323521",
"<  c #45391E",
"1  c #463B21",
"2  c #157C15",
"3  c #0D4327",
"4  c #0F4923",
"5  c #0A432D",
"6  c #0E4B2A",
"7  c #144325",
"8  c #134C25",
"9  c #1F4925",
"0  c #134C29",
"q  c #0C542D",
"w  c #115027",
"e  c #175E23",
"r  c #195D26",
"t  c #135B2B",
"y  c #0A4731",
"u  c #094B32",
"i  c #0A5135",
"p  c #115930",
"a  c #214725",
"s  c #255426",
"d  c #176023",
"f  c #186624",
"g  c #1A6B24",
"h  c #15632A",
"j  c #19632A",
"k  c #17692D",
"l  c #196B2A",
"z  c #167027",
"x  c #187120",
"c  c #1F7D27",
"v  c #17762C",
"b  c #1D722C",
"n  c #1B7B2B",
"m  c #136432",
"M  c #186630",
"N  c #146933",
"B  c #167133",
"V  c #197432",
"C  c #216C29",
"Z  c #336E26",
"A  c #257D25",
"S  c #237C2B",
"D  c #297C2C",
"F  c #397626",
"G  c #237130",
"H  c #4A4426",
"J  c #514524",
"K  c #564B28",
"L  c #437A2D",
"P  c #477A31",
"I  c #1C8D1C",
"U  c #1D931D",
"Y  c #1F8124",
"T  c #1F9520",
"R  c #1F9820",
"E  c #218C22",
"W  c #25852C",
"Q  c #28852F",
"!  c #238B2B",
"~  c #298F2E",
"^  c #229422",
"/  c #259C25",
"(  c #289F27",
")  c #26932C",
"_  c #2A962C",
"`  c #279A2A",
"'  c #299D2A",
"]  c #208532",
"[  c #269531",
"{  c #2E9D31",
"}  c #26A226",
"|  c #27A827",
" . c #27A228",
".. c #29A32B",
"X. c #2AA22A",
"o. c #2AA32A",
"O. c #2BA22B",
"+. c #2BA32B",
"@. c #2BA32B",
"#. c #29A129",
"$. c #28A428",
"%. c #28A528",
"&. c #29A529",
"*. c #29A629",
"=. c #2AA42A",
"-. c #2BA42B",
";. c #2BA52B",
":. c #2AA62A",
">. c #2AA72A",
",. c #2BA62B",
"<. c #2AA72B",
"1. c #2CA12C",
"2. c #2DA02D",
"3. c #2CA22C",
"4. c #2CA32C",
"5. c #2DA32D",
"6. c #2DA22D",
"7. c #2EA12E",
"8. c #2EA32F",
"9. c #2CA42C",
"0. c #2CA52C",
"q. c #2DA42D",
"w. c #2CA62C",
"e. c #2CA72C",
"r. c #2DA62D",
"t. c #2DA72D",
"y. c #2DA62C",
"u. c #2EA42E",
"i. c #2EA52E",
"p. c #2FA52F",
"a. c #2DA72E",
"s. c #2EA62E",
"d. c #2FA62E",
"f. c #2EA72E",
"g. c #2FA72F",
"h. c #2FA72F",
"j. c #2BA42B",
"k. c #2BA82A",
"l. c #2BA82C",
"z. c #2DA82D",
"x. c #2DA92D",
"c. c #2EA82E",
"v. c #2FA82F",
"b. c #2FA92F",
"n. c #2FA92E",
"m. c #2FAA2F",
"M. c #2FAB2F",
"N. c #2FAD2F",
"B. c #2FAF2F",
"V. c #2DAA2D",
"C. c #30AB2F",
"Z. c #30A92F",
"A. c #2EA530",
"S. c #2FAA30",
"D. c #2FAA30",
"F. c #30A430",
"G. c #30A730",
"H. c #31A630",
"J. c #32A432",
"K. c #32A732",
"L. c #31A631",
"P. c #30A830",
"I. c #31A931",
"U. c #30AA30",
"Y. c #31AA31",
"T. c #31AA30",
"R. c #32A832",
"E. c #32A932",
"W. c #33A833",
"Q. c #32AB32",
"!. c #34AB33",
"~. c #30AD31",
"^. c #30AE30",
"/. c #32AD32",
"(. c #32AE32",
"). c #34A934",
"_. c #34AA34",
"`. c #35AD35",
"'. c #36AE36",
"]. c #32AB32",
"[. c #38AC37",
"{. c #38AE38",
"}. c #36B036",
"|. c #40882F",
/* pixels */
"' 6.&./ / &./ / #.6.#. .q.' #.` 6.q.q./ ' /  .#./  .6.#.#.q.U.I ",
"q.b.q.b.6.#.U.#.U.G./ q.G./ _ # D / b.q.6.6. .U.b.#.q.b.q.q./.^ ",
"q.#.#.&.&.#.U. .U.#.U.#.' C & @ X g U.U.&.q.q.G./ &.#.q.b.q.M.U ",
"` q.U.6.G./ _.b.#.U.q.` 0 % y 5 @ j ^ #.b.b.#.( &.U.6.q.!.G.#.` ",
"&./.q.b.U.U.6./ #.q.' 6 y u i % o = c #.q.b.b.#.q.b.#.G.q.b.&.I ",
"#.&.G.q.q.6.#./ q.b.#.m $ $ o o X X 8 &.%.`.`.S.b.!.&.{.U.q.q.^ ",
"q.&.&.q.#.%.&.6.q.G.) 6 % o O * @ @ 6 ! / b.q.q.6.#.&.#.b.#.q.I ",
"'  .q.U.U.#.&.&.q./ n i u y # # o @ @ # b q.q.&./ q.#.&.G.6.q.I ",
" ./ U.b.k.b.' R n v m 6 5 % % & X o o o = ) b./ q. ._.q./.U.q.U ",
"/ %.' / /.#.k.` V m i q i u y * X X o 0 6 h q.b./.#.&.#.b. ././ ",
"#.#. .U.&.G.q.` l h 8 # @ o o + O @ r ) #.q./ &.&.6.#./ b.C.b.U ",
"#.b./.q.G.6.#.[.6.d # y y u @ % # @ 3 h ^ M.q.b. .l.M.%.#.k.&.^ ",
"#.&.&.q.q. .G.G 5 % y i i y o % % % % # b S./ %.C./ /.S.,.q.q.^ ",
"J.#.#.q.#.`.q.] N B p % # y * 5 5 5 % ; j ' k.b.&. ./././.6.#.I ",
"6./ &.q. .U.#.b.q.j & X X @   $ 5 y u i N N N G.&.&.M.b.&.#.b.U ",
"` / b.&.e./.6.W = a D % 5 @ X . * o % y u u v q.&.}.&.k.M.6.' ^ ",
" .#.q.U.b.q.W 4 7 p y i y % & ; # @ X o o # ) / U.b./ &.U./ U.U ",
"b.q.G.#.#.A.M y 5 y u 5 % % - & & o X o X X @ e ) q.^ &.%.b.`./ ",
"J.q.&.q.q.b n k % % 5 # # % > O @ 5 @ 3 g h b w 6.#.q./ b.G.`.^ ",
"/ #.k.&.&.&.c @ @ @ X X @ y % - % % 5 y u u u n / &.#.| / q.b.I ",
"6.b./.M.#.%.t y y y - ; y y % % o # # # h t h ` k.M.#.&.&.S.#.I ",
"#.k.b.q.#.{ l # - : i y # % % 5 % @ o @ # r f f _ &.&.&.q.&.q.^ ",
"#.&.M.&._ N y y u u y # $ % # 5 u % # h n 9 s r r ' b.&.U.b.&.I ",
"6.#.#.#.k p t k # @ o o o o - % 5 y u 5 5 h l z &./ k.&. .&./.^ ",
"#.&.&.q.q.&.! 0 % # # @ % # # % % % 5 5 u y q k #.&.b.S.#.6.k.U ",
"` ' b.U. .! # $ u y y 5 5 > . > $ % % % % o r S E q.!./ q.&.b.I ",
"#.q.#. .3.j y i i 5 % # $ , < < > $ $ $ 8 @ o = Y  .U._.q./.k.I ",
"b.M.&.#.b.6.[ ] ) ~ S 7 @ H J < < @ $ $ $ x ` #.q.M.#.M.G.q.b.^ ",
"&.b.b. .b.b.#.&.6.S.U.!.F K K 1 < A Q S W ) &.&.&.b. .b.#.k.q.U ",
"b.&.q.b.M./ 6. .,.S.G.q.|.L P Z Z _ b.&.q.#.U.b.&.#.b.#.G.G.b./ ",
"G.&.G.U.q.&./ b.b.l.U.k.#.' U.q.U.b.b.G.G.S.6.`.#.6.b.k.`./.#.^ ",
"I I I ^ / / E U U I I ^ U E I U U U ^ U E / U U ^ I ^ U T ^ U 2 "
};
